<svg xmlns="http://www.w3.org/2000/svg" xmlns:xlink="http://www.w3.org/1999/xlink" class="A" id="A" viewBox="0 0 500 500" xmlns:v="https://vecta.io/nano"><style><![CDATA[svg#A.A #B{animation:1.5s Infinite linear shake;animation-delay:0s}@keyframes shake{10%,90%{transform:translate3d(-1px, 0, 0)}20%,80%{transform:translate3d(2px, 0, 0)}30%,50%,70%{transform:translate3d(-4px, 0, 0)}40%,60%{transform:translate3d(4px, 0, 0)}} @keyframes shake{10%,90%{transform:translate3d(-1px, 0, 0)}20%,80%{transform:translate3d(2px, 0, 0)}30%,50%,70%{transform:translate3d(-4px, 0, 0)}40%,60%{transform:translate3d(4px, 0, 0)}}.D{stroke:#263238}.E{stroke-miterlimit:10}.F{fill:#fff}.G{fill:none}.H{fill:#263238}.I{fill:#0261b4}.J{stroke-linecap:round}.K{stroke-linejoin:round}]]></style><g class="B"><use xlink:href="#D" class="I" transform-origin="252.579px 260.721px 0px"/><use xlink:href="#D" class="F" opacity=".7" transform-origin="252.579px 260.721px 0px"/><g class="D G K"><path d="M124.76,28.05h0a80.48,80.48,0,0,1,80.48,80.48V398a0,0,0,0,1,0,0h-161a0,0,0,0,1,0,0V108.53a80.48,80.48,0,0,1,80.48-80.48Z" transform-origin="124.74px 213.025px 0px"/><g class="J"><path d="M62.46,397.13v-286a62.31,62.31,0,0,1,62.3-62.31h0a62.31,62.31,0,0,1,62.31,62.31v286" transform-origin="124.765px 222.975px 0px"/><path d="M124.76 28.05v369.52" transform-origin="124.76px 212.81px 0px"/><path d="M45.15 99.23h159.01" transform-origin="124.655px 99.23px 0px"/><path d="M45.15 149.42h159.01" transform-origin="124.655px 149.42px 0px"/><path d="M45.15 199.61h159.01" transform-origin="124.655px 199.61px 0px"/><path d="M45.15 249.81h159.01" transform-origin="124.655px 249.81px 0px"/><path d="M45.15 300h159.01" transform-origin="124.655px 300px 0px"/><path d="M45.15 350.19h159.01" transform-origin="124.655px 350.19px 0px"/><path d="M66.41 53.17L80.83 66.3" transform-origin="73.62px 59.735px 0px"/><path d="M182.51 53.17L168.09 66.3" transform-origin="175.3px 59.735px 0px"/></g></g><g class="D G"><g class="K"><path d="M302 40.75h159.02v216.6H302z" transform-origin="381.51px 149.05px 0px"/><path d="M312.77 49.87h137.48v198.35H312.77z" transform-origin="381.51px 149.045px 0px"/></g><g class="E"><path d="M450.25 62c-2.25-.56-26.36-6.17-31.81 6.9-5.71 13.71 32 49.13 11.43 77.7s-78.85-14.85-88 8-8 53.7-24 59.42a34.22 34.22 0 0 1-5.12 1.36v32.9h137.5z" transform-origin="381.5px 154.304px 0px"/><path d="M346.81,49.87c10.35,5.7,18,13.93,9.93,24.69-17.14,22.86-42.28,36.57-26.28,49.14S388.73,126,383,90.56c-3.16-19.59-3.17-32.18-.23-40.69Z" transform-origin="354.439px 89.3554px 0px"/></g><circle cx="375.59" cy="196.26" r="21.14" transform-origin="375.59px 196.26px 0px" transform="rotate(337.19)"/><g class="E"><path d="M442.44 176.83a8.57 8.57 0 1 1-8.57-8.57 8.57 8.57 0 0 1 8.57 8.57z" transform-origin="433.87px 176.83px 0px"/><path d="M359 106.56a6.86 6.86 0 1 1-6.85-6.86 6.85 6.85 0 0 1 6.85 6.86z" transform-origin="352.14px 106.56px 0px"/></g></g></g><g id="B" class="B" transform-origin="257.632px 256.699px 0px"><g class="D E F"><path d="M325.07,95.53l-48.79,1.29-1,17.11L322.14,122s.12-16,4.43-26.09" transform-origin="300.925px 108.765px 0px"/><path d="M343 94.78a2.5 2.5 0 0 0-2-3.72c-3.37-.75-15.65 0-17.52 0s-7.73 6-8.67 17.14-.1 17.14 2.15 18.26 17.51-.37 17.51-.37 3.14-13.79 6-20.13A24.2 24.2 0 0 0 343 94.78z" transform-origin="328.876px 108.802px 0px"/></g><path d="M299.45 448.34c3.14-22.29 6.76-50.38 6.6-60.36-.28-17.47-.78-20.23-.78-20.23H172.38l-1.33 3.25a247.51 247.51 0 0 0-.07 53.34l4 39.37c16.95-5.24 35.38-11.1 56.95-14.09l.7-49.19 5.46-4.14 2.54 52.3c6.3-.61 12.86-1 19.73-1 14.77-.03 27.64.41 39.09.75z" class="D E H" transform-origin="237.814px 415.73px 0px"/><path d="M204.6,194.86h73.11l8.36,180.25s-10.52,3.68-26.16,3.22-18.48-5.52-33.12-1.38-15.52,7.36-26.13,5.06L190,379.71Z" class="D E F" transform-origin="238.035px 288.818px 0px"/><g class="G J D E"><path d="M241.76 327.4l-1.62 5.14" transform-origin="240.95px 329.97px 0px"/><path d="M257.58 284.57l-13.77 36.94" transform-origin="250.695px 303.04px 0px"/><path d="M237.82 306.21l-1.89 4.27" transform-origin="236.875px 308.345px 0px"/><path d="M250.84 276.85l-9.56 21.56" transform-origin="246.06px 287.63px 0px"/></g><path d="M257.56 209.94l.91 81.24-.05 114.41s19 0 30.51-3S314.72 384 314.72 384l-16.13-101.37c-.56-12.3 4-77.52 4-77.52l69.5-83.1c6.55-9.69 8.29-17.52 6.74-21.62s-35.89-7.08-39.6-6-9.23 27.23-9.23 27.23-23.56 18.26-32.06 23.1-13.68 7.08-24.41 11.55a73.91 73.91 0 0 0-19.19 12.3z" class="D E I" transform-origin="316.85px 249.879px 0px"/><g class="G D E"><path d="M289.56 191.61l.24 6.4" transform-origin="289.68px 194.81px 0px"/><path d="M290.93,151.43s-1.32,19.72-1.39,35.37" transform-origin="290.235px 169.115px 0px"/><path d="M295.36,148.82s-2.71,17.52-3.31,26.46" transform-origin="293.705px 162.05px 0px"/><path d="M330,121.62s12.58-9.86,15.61-10.37" transform-origin="337.805px 116.435px 0px"/></g><path d="M222.87,207.7l-3.62,101L213.75,409a213.06,213.06,0,0,1-29.59-9.32c-14.63-6-22.55-12.3-22.55-12.3s5.82-32.42,9.64-50.31,8.82-54.78,8.73-60.74-.88-31.68-3.33-45.47-13.54-31.31-13.57-33.17,38.49-17.14,45.51-20.87a41.4,41.4,0,0,1,12.6-4.47l1.88.74Z" class="D E I" transform-origin="192.34px 290.675px 0px"/><g class="F D E"><path d="M222.24 167.83s-7 3.35-8.41 10.06-6.2 32.42-6.51 36.15 1.15 2.24 4.08-1.12 6.19-8.94 7.71-7.45l7.19 7.08h27.58a8.82 8.82 0 0 0 3.68-2.61c1.46-1.86 4-6.34 5.52-4.85s5.39 11.19 6.47 8.95-4.19-29.81-5.82-38.39-16.24-13.79-41.49-7.82z" transform-origin="238.487px 190.746px 0px"/><path d="M223.12,176.4s-1.33,33.91,1.76,40.62,11.39,13,19.17,10.44,13.31-7.09,13.55-15.28S255.54,176,255.54,176Z" transform-origin="240.226px 202.022px 0px"/></g><path d="M257.6 212.18c.24-8.2-2.06-36.15-2.06-36.15l-32.42.37s-.48 12.23-.19 23.45a33.89 33.89 0 0 0 15-5.18 45.34 45.34 0 0 0 11.82-11.34l7.36 32.39a16.33 16.33 0 0 0 .49-3.54z" class="D E H" transform-origin="240.227px 195.875px 0px"/><g class="F D E"><path d="M201.16 121.82s-2.82-4.13-5.48 2.07 2.64 14.82 5.09 16.89 9 4.82 9 1.72-2.68-16.54-4.82-21.36-3.79.68-3.79.68z" transform-origin="202.361px 131.527px 0px"/><path d="M279.4 122.86s2.69-4.14 5.55 2.07-2.18 14.81-4.56 16.88-8.88 4.83-8.93 1.72 2.15-16.54 4.14-21.36 3.8.69 3.8.69z" transform-origin="278.632px 132.56px 0px"/><path d="M205.87 136.3s3 18.26 5.24 26.53 21.11 27.23 28 27.57 25-10.68 29.29-22.05 5.39-29.64 5.38-30.67 2.34-25.85-4.34-34.81-34.58-7.58-48.25-.34-21.08 18.26-15.32 33.77z" transform-origin="239.037px 143.513px 0px"/></g><g class="H"><path d="M229.55 152c0 2.19-.94 4-2.18 4s-2.27-1.77-2.3-4 .94-4 2.18-4 2.26 1.79 2.3 4z" transform-origin="227.31px 152px 0px"/><path d="M256.08 152c0 2.19-.94 4-2.17 4s-2.27-1.77-2.31-4 .94-4 2.18-4 2.27 1.79 2.3 4z" transform-origin="253.839px 152px 0px"/></g><g class="D E"><g class="G J"><g stroke-width="3"><path d="M231.41 139.05l-12.99 6.55" transform-origin="224.915px 142.325px 0px"/><path d="M251.4 139.4l12.87 7.58" transform-origin="257.835px 143.19px 0px"/></g><path d="M245.91,165.42a4.42,4.42,0,0,1-4.65,4.25,4.59,4.59,0,0,1-4.78-4.25" transform-origin="241.195px 167.548px 0px"/><path d="M237.9,178a7.72,7.72,0,0,1,6.25,0" transform-origin="241.025px 177.67px 0px"/><path d="M220.3 155.75l5.27 1" transform-origin="222.935px 156.25px 0px"/><path d="M262.05 155.75l-5.72 1.75" transform-origin="259.19px 156.625px 0px"/></g><g class="H"><path d="M224.11 69.44s-17.79 8.28-23.39 24.82 1.92 33.77 3 38.25 1.83 6.89 1.83 6.89 5.08-5.86 8.83-8.62 11.3-4.13 15.77-5.17 19.91-4.82 24-9 5.42-5.86 5.42-5.86 3.38 17.57 7.94 22.74a25.66 25.66 0 0 1 5.68 10.68s3-6.89 5.31-13.09 3.93-34.81-2.47-46.87-33.45-23.72-51.92-14.77z" transform-origin="239.604px 105.223px 0px"/><path d="M259.57 110.8s-13.9 14.81-30 21.71-33 25.15-31.51 34.46 12.95 12.75 11.57 12.75-18.31-3.1-18.18-16.89 14.47-22.05 22-25.5 39.3-22.05 46.12-26.53z" transform-origin="225.51px 145.26px 0px"/><path d="M262.83 121.14s4.74 16.54 7.59 22 7.87 18.61 4.23 27.91-6.38 10.68-6.38 10.68 12.27-8.61 12.05-22.74-15.27-28.21-17.49-37.85z" transform-origin="271.576px 151.435px 0px"/></g></g><g class="D H"><ellipse cx="239.86" cy="73.99" rx="17.05" ry="20.51" transform-origin="239.86px 73.99px 0px" transform="rotate(272.03)"/></g><g class="D H"><ellipse cx="239.98" cy="59.68" rx="9.99" ry="12.24" transform-origin="239.98px 59.68px 0px" transform="rotate(271.81)"/></g><g class="D E"><path d="M138.27 325.84l.89 56.28s-4.45 24.59-2.19 26.46 9.83 8.57 11.35 10.43 4.51 2.61 6.75 3 8.55-1.49 7.38-4.84-2.6.74-3.73-.38a32.87 32.87 0 0 1-3.05-4.09l2.11-8.2s.49 7.82 2.36 8.2 2.22-1.12 2.17-4.1-.8-3.73-.52-9.32-2-9.69-3.18-12.67-3.49-8.57-3.89-10.44 11.94-46.21 11.94-46.21-8.11 5.2-28.39-4.12z" class="F" transform-origin="151.495px 373.95px 0px"/><path d="M163.08 197.64s-10.67 8.57-12.33 21.62-2.11 31.67-3.5 37.64-7 52.92-7 52.92 5.3 5.21 9.8 7.45 14.54.37 16 0a31.7 31.7 0 0 0 4.44-1.86s6.13-36.53 6.41-42.86 2.68-19 2.68-19-.24-41-16.5-55.91z" class="I" transform-origin="159.915px 257.997px 0px"/><g class="G"><path d="M170.08 269.19l-2 3.68" transform-origin="169.08px 271.03px 0px"/><path d="M179.62 253.54l-7.34 11.91" transform-origin="175.95px 259.495px 0px"/><path d="M170.67 261.74l-7.79 12.98" transform-origin="166.775px 268.23px 0px"/></g><g class="F"><path d="M139 302.36s7.56 6.71 14.68 8.95 13.07 1.86 15.67 1.12 3.69-1.87 4.11 1.11-2 13.42-2 16.4-1 4.47-7 5.59-18.65-1.12-22.42-3.73-6.43-6.33-6.11-9.69 1.69-10.8 2-13.41-.39-5.59 1.07-6.34z" transform-origin="154.706px 319.093px 0px"/><path d="M218.4 247.73a2 2 0 0 0-.29-.22c-2.64-1.65-16.17 1.85-19.6 1.85-11.13 0-15.73-3-16.17 1s-1.39 8.1-.34 10.12 4.55 0 7.59.51 9.17 4 11.7 4 9-4 10.56-4 5.08 1.51 6.08 0c1.57-2.47 2.67-11.15.47-13.26z" transform-origin="200.58px 256.029px 0px"/></g><path d="M202.59 259.75a2.16 2.16 0 0 1-2.17 2.21 2.25 2.25 0 0 1-2.24-2.21 2.16 2.16 0 0 1 2.17-2.2 2.25 2.25 0 0 1 2.24 2.2z" class="G" transform-origin="200.385px 259.755px 0px"/><path d="M296.31 247.73a2 2 0 0 0-.29-.22c-2.65-1.65-16.17 1.85-19.6 1.85-11.13 0-15.73-3-16.17 1s-1.39 8.1-.35 10.12 4.56 0 7.6.51 9.17 4 11.7 4 9-4 10.56-4 5.08 1.51 6.08 0c1.56-2.47 2.67-11.15.47-13.26z" class="F" transform-origin="278.488px 256.029px 0px"/><path d="M280.9 260.31a2.16 2.16 0 0 1-2.17 2.2 2.25 2.25 0 0 1-2.24-2.2 2.16 2.16 0 0 1 2.17-2.21 2.25 2.25 0 0 1 2.24 2.21z" class="G" transform-origin="278.695px 260.305px 0px"/></g></g><defs ><path id="D" d="M328.83,58.06S249.49,26.89,173.61,70.88,61.28,205.38,29.83,277.82,19.63,425.43,79.41,461.1s98.47-13.38,181-13.52,105.06,12.73,172.29-33.76,76.55-160.45,20.22-246.54S328.83,58.06,328.83,58.06Z"/></defs></svg>